<svg width="1200" height="720" viewBox="0 0 1200 720" fill="none" xmlns="http://www.w3.org/2000/svg">
  <rect width="1200" height="720" fill="#F8FAFC"/>
  <rect x="52" y="36" width="1096" height="648" rx="28" fill="#FFFFFF" stroke="#DBE7FB"/>
  <rect x="88" y="72" width="1024" height="170" rx="28" fill="url(#g2)"/>
  <text x="124" y="132" fill="white" font-size="38" font-family="Arial" font-weight="700">搜索题目</text>
  <text x="124" y="174" fill="#DCEBFF" font-size="22" font-family="Arial">输入关键词后，继续按学科、难度、题型和标签缩小范围。</text>
  <rect x="120" y="202" width="590" height="42" rx="21" fill="rgba(255,255,255,0.94)"/>
  <text x="144" y="228" fill="#64748B" font-size="18" font-family="Arial">输入题目关键词或题干片段</text>
  <rect x="734" y="202" width="126" height="42" rx="21" fill="#FFFFFF" fill-opacity="0.22"/>
  <text x="778" y="228" fill="white" font-size="18" font-family="Arial">搜索</text>

  <rect x="88" y="278" width="1024" height="92" rx="24" fill="#F8FBFF" stroke="#DBE7FB"/>
  <text x="122" y="332" fill="#0F172A" font-size="28" font-family="Arial" font-weight="700">搜索结果</text>
  <text x="300" y="332" fill="#64748B" font-size="18" font-family="Arial">共 12 条结果</text>
  <rect x="888" y="300" width="156" height="40" rx="20" fill="#EEF4FF"/>
  <text x="928" y="325" fill="#1D4ED8" font-size="18" font-family="Arial">综合排序</text>

  <rect x="88" y="400" width="1024" height="110" rx="24" fill="#FFFFFF" stroke="#DBE7FB"/>
  <text x="122" y="446" fill="#0F172A" font-size="28" font-family="Arial" font-weight="700">JavaScript 闭包是什么？</text>
  <text x="122" y="482" fill="#64748B" font-size="18" font-family="Arial">支持查看答案摘要、展开解析，并继续进入详情页。</text>
  <rect x="122" y="498" width="82" height="30" rx="15" fill="#E8F0FF"/>
  <text x="146" y="518" fill="#1D4ED8" font-size="15" font-family="Arial">前端</text>
  <rect x="214" y="498" width="82" height="30" rx="15" fill="#F3F4F6"/>
  <text x="236" y="518" fill="#4B5563" font-size="15" font-family="Arial">中等</text>

  <rect x="88" y="536" width="1024" height="110" rx="24" fill="#FFFFFF" stroke="#DBE7FB"/>
  <text x="122" y="582" fill="#0F172A" font-size="28" font-family="Arial" font-weight="700">Redis 为什么适合做缓存？</text>
  <text x="122" y="618" fill="#64748B" font-size="18" font-family="Arial">列表更直接，结果页聚焦答案、解析和继续筛选。</text>
  <rect x="122" y="634" width="82" height="30" rx="15" fill="#E8F0FF"/>
  <text x="146" y="654" fill="#1D4ED8" font-size="15" font-family="Arial">后端</text>
  <rect x="214" y="634" width="82" height="30" rx="15" fill="#F3F4F6"/>
  <text x="236" y="654" fill="#4B5563" font-size="15" font-family="Arial">简单</text>

  <defs>
    <linearGradient id="g2" x1="88" y1="72" x2="1112" y2="242" gradientUnits="userSpaceOnUse">
      <stop stop-color="#123FA5"/>
      <stop offset="0.58" stop-color="#2563EB"/>
      <stop offset="1" stop-color="#60A5FA"/>
    </linearGradient>
  </defs>
</svg>
